<?xml version="1.0" encoding="UTF-8"?>
<svg id="Camada_1" xmlns="http://www.w3.org/2000/svg" version="1.1" viewBox="0 0 800 800">
  <!-- Generator: Adobe Illustrator 30.1.0, SVG Export Plug-In . SVG Version: 2.1.1 Build 136)  -->
  <defs>
    <style>
      .st0 {
        fill: #034341;
      }
    </style>
  </defs>
  <path class="st0" d="M399.84,712.61h-.18c-42.22-.03-83.18-8.32-121.75-24.66-37.24-15.78-70.68-38.35-99.38-67.08-28.7-28.73-51.23-62.2-66.97-99.46-16.3-38.59-24.55-79.56-24.52-121.78.02-42.22,8.32-83.18,24.66-121.75,15.78-37.24,38.35-70.68,67.08-99.38,28.74-28.7,62.2-51.23,99.46-66.97,38.53-16.27,79.45-24.52,121.6-24.52h.18c44.09.02,86.86,9.14,127.13,27.08,13.21,5.89,19.14,21.36,13.26,34.57-5.88,13.21-21.36,19.14-34.57,13.26-33.53-14.94-69.14-22.53-105.85-22.55h-.15c-69.51,0-134.87,27.05-184.05,76.18-49.22,49.16-76.35,114.55-76.39,184.12-.08,143.61,116.69,260.51,260.3,260.6h.15c69.51,0,134.87-27.05,184.05-76.18,49.22-49.16,76.35-114.55,76.39-184.12v-26.35c0-14.46,11.72-26.18,26.18-26.18s26.18,11.72,26.18,26.18v26.37c-.02,42.23-8.32,83.19-24.66,121.77-15.78,37.24-38.35,70.68-67.08,99.38-28.73,28.7-62.2,51.23-99.46,66.97-38.53,16.27-79.45,24.52-121.6,24.52Z"/>
  <path class="st0" d="M400.58,516.63c-.36,0-.71,0-1.07-.02-9.21-.3-17.89-4.39-23.96-11.32l-129.57-147.55c-12.14-13.83-10.78-34.88,3.05-47.02,13.83-12.14,34.88-10.77,47.02,3.05l106.1,120.83,278.81-279.09c13.01-13.02,34.1-13.03,47.12-.02,13.02,13,13.03,34.1.02,47.12l-303.95,304.26c-6.26,6.26-14.74,9.77-23.57,9.77Z"/>
</svg>