<svg preserveAspectRatio="none" width="100%" height="100%" overflow="visible" style="display: block;" viewBox="0 0 29 29" fill="none" xmlns="http://www.w3.org/2000/svg">
<g id="ICON INSTAGRAM 1">
<path id="Vector" d="M18.7669 26.244H10.2672C9.33757 26.244 8.47583 26.1455 7.59119 25.9312C5.32585 25.3821 3.61007 23.6869 3.04732 21.4249C2.82837 20.5455 2.72325 19.688 2.72325 18.7627V10.1822C2.72325 9.24158 2.82939 8.37201 3.05834 7.4762C3.62326 5.26901 5.29308 3.60325 7.5036 3.03775C8.40246 2.80691 9.27739 2.70309 10.2222 2.70309H18.7898C19.7545 2.70309 20.6479 2.81024 21.5654 3.05196C23.7662 3.63167 25.4152 5.31498 25.9659 7.51999C26.1903 8.41899 26.2911 9.29407 26.2911 10.238V18.708C26.2911 19.652 26.1903 20.5269 25.9659 21.4261C25.4063 23.6694 23.7114 25.3657 21.4658 25.9214C20.5778 26.1412 19.7293 26.2451 18.7679 26.2451L18.7668 26.244H18.7669ZM14.4782 24.1582L19.217 24.0947C19.8663 24.086 20.4663 23.9885 21.0794 23.819C22.4962 23.4263 23.5418 22.3425 23.8954 20.9151C24.0838 20.1572 24.1603 19.4232 24.1603 18.6183V10.3288C24.1603 9.52375 24.0848 8.7899 23.8954 8.03083C23.5396 6.6078 22.5039 5.52827 21.0936 5.13242C20.4563 4.95305 19.8344 4.85895 19.161 4.85025L14.5602 4.79008L9.96165 4.84474C9.24883 4.85344 8.5898 4.94102 7.91642 5.13242C6.55879 5.51638 5.53726 6.53457 5.15287 7.89308C4.96785 8.54819 4.87592 9.18691 4.86707 9.88045L4.80907 14.7509L4.8791 19.2856C4.88896 19.9156 4.99191 20.5018 5.16591 21.1001C5.55132 22.4247 6.5598 23.4265 7.88669 23.8071C8.4999 23.9833 9.09875 24.0849 9.74371 24.0936L14.4759 24.1603L14.4781 24.1582H14.4782Z" fill="var(--fill-0, #FDF7ED)"/>
<path id="Vector_2" d="M20.578 14.473C20.578 17.8233 17.8594 20.539 14.5057 20.539C11.152 20.539 8.43334 17.8231 8.43334 14.473C8.43334 11.123 11.152 8.4071 14.5057 8.4071C17.8594 8.4071 20.578 11.123 20.578 14.473ZM18.4473 14.473C18.4473 12.2986 16.6824 10.5366 14.5068 10.5366C12.3312 10.5366 10.5663 12.2996 10.5663 14.473C10.5663 16.6464 12.3312 18.4095 14.5068 18.4095C16.6824 18.4095 18.4473 16.6463 18.4473 14.473Z" fill="var(--fill-0, #FDF7ED)"/>
<path id="Vector_3" d="M22.2368 8.16756C22.2368 8.94984 21.602 9.58392 20.8188 9.58392C20.0357 9.58392 19.4009 8.94984 19.4009 8.16756C19.4009 7.38529 20.0357 6.7512 20.8188 6.7512C21.602 6.7512 22.2368 7.38529 22.2368 8.16756Z" fill="var(--fill-0, #FDF7ED)"/>
</g>
</svg>
