<svg preserveAspectRatio="none" width="100%" height="100%" overflow="visible" style="display: block;" viewBox="0 0 29 29" fill="none" xmlns="http://www.w3.org/2000/svg">
<g id="ICON INTERNET 1">
<path id="Vector" d="M26.2834 14.5C26.2834 21.0012 21.0082 26.271 14.5 26.271C7.99182 26.271 2.71657 21.0012 2.71657 14.5C2.71657 7.99878 7.99182 2.72904 14.5 2.72904C21.0082 2.72904 26.2834 7.99878 26.2834 14.5ZM10.1871 7.73952C11.4254 8.13653 12.6562 8.33446 13.9361 8.38593V3.91253C13.427 4.00446 12.9978 4.22747 12.5816 4.50979C11.5043 5.2896 10.7268 6.50702 10.1871 7.7385V7.73967V7.73952ZM16.4884 4.55996C16.0515 4.25039 15.5862 4.00316 15.0651 3.91572V8.38694C16.3527 8.33445 17.59 8.13435 18.814 7.73836C18.2655 6.50673 17.5495 5.365 16.4885 4.55996H16.4884ZM9.13384 7.34034C9.59146 6.24762 10.1751 5.34746 10.8978 4.4879C9.59914 4.94175 8.48787 5.62324 7.48606 6.49049C8.03126 6.82848 8.56239 7.11501 9.13384 7.34034ZM19.8881 7.34584C20.4936 7.07237 20.9961 6.81761 21.5139 6.48947C20.4979 5.61121 19.3581 4.92319 18.077 4.47702C18.9003 5.40009 19.369 6.25762 19.8879 7.34483V7.34599L19.8881 7.34584ZM7.76519 13.9345C7.82319 12.0128 8.11232 10.1863 8.71668 8.39579C7.9853 8.09057 7.31409 7.72749 6.6539 7.29771C4.96335 9.13631 3.9801 11.4868 3.85526 13.9368L7.76519 13.9335V13.9346V13.9345ZM21.237 13.9367L25.1458 13.9333C25.0122 11.456 24.0191 9.11427 22.3428 7.2964C21.6771 7.73386 21.0124 8.08505 20.2832 8.39782C20.8897 10.1784 21.1755 12.0367 21.2368 13.9365L21.237 13.9367ZM13.9361 13.9323V9.51359C12.481 9.46763 11.1167 9.2117 9.77213 8.79613C9.20503 10.5002 8.94766 12.2131 8.89619 13.9345L13.9361 13.9323ZM20.1048 13.9335C20.049 12.1681 19.7851 10.4467 19.2224 8.79062C17.8428 9.23577 16.484 9.45777 15.0639 9.51475L15.0661 13.9357L20.1037 13.9323L20.1048 13.9335ZM8.71566 20.6031C8.10579 18.7962 7.82333 16.9533 7.76417 15.061H3.85323C3.99011 17.5362 4.969 19.8647 6.65506 21.7023C7.31742 21.2702 7.99196 20.9083 8.71566 20.6031ZM13.9351 19.4831V15.0622H8.89415C8.9478 16.823 9.2117 18.5304 9.77561 20.2104C11.1443 19.7652 12.5206 19.5443 13.9352 19.4831H13.9351ZM19.23 20.206C19.7928 18.491 20.0555 16.8056 20.1016 15.0622H15.0651V19.4864C16.4972 19.5367 17.8669 19.7773 19.23 20.206ZM22.3471 21.7013C24.0365 19.8528 25.0176 17.5188 25.1424 15.0622H21.2315C21.1812 16.9653 20.8822 18.8171 20.2822 20.6054C21.0224 20.9171 21.6913 21.279 22.3461 21.7013H22.3473H22.3471ZM12.6167 24.5154C13.0383 24.7966 13.4566 24.9989 13.9349 25.0896V20.6129C12.655 20.6676 11.4254 20.8633 10.1881 21.2605C10.7235 22.4823 11.4966 23.7159 12.6178 24.5154H12.6166H12.6167ZM17.6336 23.2948C18.1143 22.6583 18.4876 21.9998 18.8127 21.2627C17.5821 20.8656 16.3316 20.6666 15.0638 20.6162V25.094C16.1291 24.8742 16.9733 24.138 17.6334 23.2948H17.6336ZM10.9065 24.5154C10.152 23.6382 9.58276 22.7216 9.1305 21.6553C8.55891 21.8949 8.01038 22.1715 7.48925 22.515C8.51628 23.3944 9.6309 24.0715 10.9065 24.5144V24.5156V24.5154ZM21.5118 22.5128C20.9611 22.1573 20.4366 21.8949 19.8705 21.6553C19.4249 22.7053 18.8687 23.6066 18.1066 24.5067C19.369 24.0802 20.5066 23.3791 21.5118 22.5139V22.5127V22.5128Z" fill="var(--fill-0, #FFF9EF)"/>
</g>
</svg>
