<svg preserveAspectRatio="none" width="100%" height="100%" overflow="visible" style="display: block;" viewBox="0 0 29 29" fill="none" xmlns="http://www.w3.org/2000/svg">
<g id="ICON WHATSAPP 1">
<path id="Vector" d="M5.3492 20.0294L5.2796 19.9144C4.61057 18.8094 4.1486 17.6084 3.90674 16.3447C3.67198 15.1183 3.65009 13.8674 3.84207 12.6269C4.03347 11.389 4.43106 10.2038 5.02382 9.10412C5.63209 7.97544 6.42814 6.97145 7.38978 6.12016C9.38107 4.35725 11.9497 3.38633 14.6225 3.38633C15.8183 3.38633 16.9966 3.57947 18.1244 3.96053C19.2843 4.35232 20.3631 4.93406 21.3307 5.68951C22.3403 6.47788 23.1949 7.42777 23.8708 8.5131C24.5289 9.56986 24.999 10.7239 25.2681 11.9432C25.5377 13.1641 25.5964 14.4091 25.443 15.6435C25.2851 16.9141 24.9059 18.1369 24.3161 19.2777C23.3782 21.092 21.961 22.6011 20.2178 23.642C18.5209 24.6551 16.5815 25.1906 14.6095 25.1906C13.7106 25.1906 12.8137 25.0785 11.9435 24.8576C11.0457 24.6297 10.1733 24.2847 9.3512 23.8325L9.24201 23.7725L3.47377 25.6135L5.34934 20.0293L5.3492 20.0294ZM9.4556 22.3806C10.9993 23.3698 12.7777 23.8921 14.6083 23.8921C17.2322 23.8921 19.7726 22.8031 21.5783 20.9046C25.1964 17.1001 25.1242 11.2121 21.4137 7.50013C19.5979 5.68342 17.1848 4.68292 14.6189 4.68292C12.053 4.68292 9.60248 5.69894 7.78041 7.54363C4.495 10.8701 4.07479 16.0016 6.75671 19.8012L5.46621 23.6476L9.4556 22.3809V22.3806Z" fill="var(--fill-0, #FDF7ED)"/>
<path id="Vector_2" d="M17.6256 19.6007C17.445 19.6007 17.2763 19.5799 17.1242 19.5392C16.5652 19.3893 16.0466 19.1812 15.4975 18.9608C15.4464 18.9403 15.3952 18.9197 15.3439 18.8993C14.2942 18.4794 13.3618 17.8749 12.4931 17.0516C11.7407 16.3385 11.0358 15.457 10.3381 14.357C9.85739 13.5993 9.57696 13.0084 9.42892 12.4414C9.24491 11.7367 9.27899 11.0816 9.53317 10.4387C9.67252 10.0863 9.90162 9.76082 10.2759 9.38353C10.4676 9.19025 10.6685 9.1002 10.9084 9.1002C10.9362 9.1002 10.965 9.1015 10.9942 9.10382L11.602 9.15501C11.6316 9.16415 11.7041 9.22896 11.7335 9.30769L12.5795 11.5681C12.6559 11.7724 12.6472 11.8756 12.5408 12.0283C12.3346 12.3243 12.0643 12.6067 11.8272 12.8441C11.6149 13.0565 11.558 13.3751 11.6885 13.619C12.6321 15.3817 13.8846 16.567 15.63 17.349L15.6445 17.3555C15.757 17.4061 15.9111 17.4754 16.0817 17.4754C16.2304 17.4754 16.3632 17.422 16.4658 17.321C16.8394 16.9525 17.1602 16.5723 17.4996 16.1698C17.5375 16.125 17.5755 16.0799 17.6136 16.0348C17.6221 16.0328 17.6364 16.0305 17.6558 16.0305C17.6946 16.0305 17.7378 16.0399 17.7655 16.0545L20.1247 17.2991C20.1449 17.3507 20.1699 17.5305 20.0882 17.885C20.0164 18.1962 19.8997 18.4711 19.8261 18.572C19.3916 19.1681 18.466 19.6008 17.6255 19.6008L17.6256 19.6007Z" fill="var(--fill-0, #FDF7ED)"/>
</g>
</svg>
