<svg preserveAspectRatio="none" width="100%" height="100%" overflow="visible" style="display: block;" viewBox="0 0 29 29" fill="none" xmlns="http://www.w3.org/2000/svg">
<g id="ICON FACEBOOK 1">
<path id="Vector" d="M19.1152 11.1805L19.1196 8.25253L15.7645 8.28864C14.4851 8.30285 13.4702 9.18662 12.9968 10.3252C12.7606 10.8928 12.6852 11.4507 12.6862 12.0718L12.6917 14.792L9.91626 14.78C9.87798 15.924 9.87247 17.0397 9.90538 18.2013L12.6875 18.2068V26.237C11.3861 26.062 10.1526 25.6311 8.98246 25.0142C5.54871 23.2041 3.22263 19.8277 2.76327 15.9602C1.91357 8.82238 7.54986 2.63393 14.6679 2.73021C19.0587 2.78922 23.0883 5.29946 25.0809 9.26202L25.2078 9.5136C26.2499 11.5862 26.5475 14.2999 26.1581 16.5935C25.9263 17.9641 25.3609 19.4799 24.6316 20.6711C22.7627 23.7216 19.6974 25.7898 16.1137 26.2711L16.1094 18.2079L18.6377 18.2014L19.1243 14.7912L16.1007 14.7813L16.0963 12.3083C16.1018 11.6554 16.6332 11.1533 17.2828 11.1862L19.1168 11.1818L19.1156 11.1807L19.1152 11.1805Z" fill="var(--fill-0, #FDF7ED)"/>
</g>
</svg>
