<svg preserveAspectRatio="none" width="100%" height="100%" overflow="visible" style="display: block;" viewBox="0 0 29 29" fill="none" xmlns="http://www.w3.org/2000/svg">
<g id="ICON YOUTUBE 1">
<path id="Vector" d="M27.0183 14.1433C27.012 13.9726 27.0049 13.803 26.9987 13.6355C27.0018 11.9568 26.941 10.2041 26.5578 8.55833C26.2518 7.24246 25.1053 6.27618 23.7703 6.12915C21.2228 5.7971 18.7321 5.76621 16.2011 5.7694C15.856 5.76215 15.5109 5.75606 15.1648 5.74983H13.835C13.4889 5.75186 13.1438 5.75809 12.7987 5.7694C10.4048 5.74475 7.95108 5.82798 5.52726 6.07883C4.74237 6.1683 4.03463 6.38928 3.43723 6.91461C2.94582 7.34642 2.56882 7.96108 2.43078 8.60155C2.06408 10.3038 2.00013 12.0762 1.98056 13.7733V14.8856C1.98679 15.05 1.99288 15.2135 2.00013 15.3738C2.0084 17.0555 2.0445 18.8741 2.46268 20.5147C2.61624 21.1161 2.99004 21.6917 3.45883 22.0948C4.13554 22.6777 4.92159 22.8565 5.7971 22.946C9.17371 23.2534 12.5598 23.2637 15.9354 23.2441C17.8421 23.2328 19.8034 23.1875 21.7472 23.0765C22.4066 23.024 23.071 22.9716 23.724 22.8678C24.4328 22.7557 24.9849 22.5737 25.538 22.0979C26.0345 21.6713 26.4104 21.0688 26.5588 20.4305C26.941 18.7837 27.0038 17.035 26.9997 15.3533C27.006 15.1909 27.0121 15.0285 27.0193 14.865V14.1423L27.0183 14.1433ZM11.9922 18.2449V10.7468L18.5014 14.4948L11.9922 18.2449Z" fill="var(--fill-0, #FDF7ED)"/>
</g>
</svg>
