<svg preserveAspectRatio="none" width="100%" height="100%" overflow="visible" style="display: block;" viewBox="0 0 29 29" fill="none" xmlns="http://www.w3.org/2000/svg">
<g id="ICON LINKEDIN 1">
<path id="Vector" d="M24.9922 22.3792C24.4645 23.9814 23.0172 25.0778 21.3385 25.2104C20.9109 25.2442 20.5018 25.2773 20.0618 25.2773H9.10919L8.47424 25.2594L7.94586 25.2271L7.66818 25.2061C5.74824 25.0605 4.17687 23.6766 3.84787 21.7626C3.75115 21.2002 3.72418 20.6278 3.72418 20.0386L3.72259 9.08381C3.72259 8.55326 3.75463 8.07636 3.80205 7.54174C3.84714 7.03308 4.0355 6.45033 4.25604 6.01576C4.2675 5.99314 4.30955 5.97531 4.31274 5.98415C4.31723 5.99662 4.30389 5.93761 4.32158 5.90469C4.65218 5.28931 5.28351 4.63985 5.93949 4.29635C6.60446 3.94806 7.28567 3.799 8.02372 3.75681C8.65969 3.72056 9.27551 3.7223 9.9151 3.72259L11.3202 3.72331L12.7243 3.72288L13.9813 3.72259L15.3359 3.72288L16.7189 3.7236L20.4724 3.73622C20.7628 3.73723 21.0321 3.76565 21.315 3.78769C21.5489 3.80596 21.7587 3.84598 21.9907 3.89789C23.4964 4.23574 24.6889 5.39371 25.074 6.88924C25.1334 7.12008 25.1836 7.33628 25.2025 7.57509C25.2412 8.0649 25.2771 8.53354 25.2771 9.03394L25.2764 19.7175C25.2764 20.2488 25.2568 20.7496 25.2139 21.2696C25.1822 21.6546 25.115 22.0061 24.9922 22.3787V22.3792ZM10.3576 8.53224C10.3576 7.51811 9.53549 6.69596 8.52136 6.69596C7.50723 6.69596 6.68508 7.51811 6.68508 8.53224C6.68508 9.54637 7.50723 10.3685 8.52136 10.3685C9.53549 10.3685 10.3576 9.54637 10.3576 8.53224ZM16.3575 14.4584C16.7037 14.3269 17.0685 14.2796 17.4354 14.3129C18.6321 14.422 18.84 15.6262 18.8399 16.6227V21.8371C18.8397 21.927 18.9067 21.9779 18.986 21.9779L21.8603 21.9772C21.9521 21.9772 22.0093 21.9098 22.0093 21.8135L22.0088 16.1785C22.0088 15.246 21.895 14.16 21.5197 13.3148C21.1675 12.5216 20.5143 11.9522 19.681 11.7134C19.1997 11.5755 18.7246 11.5234 18.219 11.5217C17.286 11.4852 16.4143 11.823 15.7466 12.4703C15.5315 12.6788 15.3686 12.9008 15.1484 13.1427L15.149 11.9145C15.149 11.8382 15.0904 11.7888 15.0097 11.7711L12.2821 11.7717C12.2373 11.7717 12.1456 11.7949 12.1301 11.8307C12.0876 11.929 12.0959 12.0547 12.0969 12.1569L12.1043 12.9327L12.1037 20.871L12.101 21.8193C12.1007 21.9052 12.1413 21.9775 12.2383 21.9775L15.1126 21.9781C15.2188 21.9781 15.2833 21.9282 15.2833 21.8135L15.2802 16.9923C15.2797 16.0486 15.3265 14.85 16.3573 14.4584H16.3575ZM10.1093 11.7697H6.90954L6.90969 21.9817H10.1094L10.1093 11.7697Z" fill="var(--fill-0, #FDF7ED)"/>
</g>
</svg>
