<?xml version="1.0" encoding="UTF-8"?>
<svg id="Camada_1" xmlns="http://www.w3.org/2000/svg" version="1.1" viewBox="0 0 2511.72 837.38">
  <!-- Generator: Adobe Illustrator 30.1.0, SVG Export Plug-In . SVG Version: 2.1.1 Build 136)  -->
  <defs>
    <style>
      .st0 {
        fill: #fff;
      }
    </style>
  </defs>
  <path class="st0" d="M338.83,118.75c-31.9,14.33-79.29,55.25-98.09,93.49-19.96,40.59-34.67,144.03,89.04,172.49,172.82,39.76,199.11,125.28,172.51,205.82-18.61,56.35-72.8,115.4-172.46,113.87-18.69-.29-21.3,19.38,3.11,18.04,102.82-5.66,182.1-37.34,238.13-132.57,49.16-83.55,20.21-236.36-185.15-316.06-75.63-29.35-47.93-92.48-26.19-136.01,16.26-32.55-4.76-26.33-20.9-19.07"/>
  <path class="st0" d="M152.92,307.47c-20.53,3.17-67.22,68.9-48.31,129.6,11.32,36.33,55.74,86.57,173.07,89.05,51.81,1.09,99.07,5.37,117.44,24.79,41.87,44.27,13.91,90.3-21.96,110.22-34.25,19.03-77.8,19.69-116.01,10.83-10.63-2.47-13.6,11.46-1.96,14.32,83.86,20.6,173.32-6.5,202.73-92.3,22.36-65.26-12.74-119.03-87.03-140.33-91.66-26.28-157.24-16.87-194.7-67.14-32.62-43.78-10.22-81.05-23.27-79.03"/>
  <path class="st0" d="M389.04,604.36c-3.31,34.13-53.88,61.67-102.95,44.74-64.72-22.33-60.21-101.52-9.31-91.27,50.22,10.12,115.62,11.88,112.27,46.53"/>
  <path class="st0" d="M2041.7,353.05c6.86,0,17.61-5.01,32.11-14.87-4.93.07.64-16.4,3.16-30.23,1.84-10.1-9.22-9.54-15.39-8.5-8.03,2.66-14.98,4.18-20.73,4.44l-3.96-.28c-4.34,10.54-6.5,22.41-6.5,35.6,0,9.23,3.77,13.84,11.31,13.84"/>
  <polygon class="st0" points="1046.81 650.67 1071.36 650.65 1076.38 695.86 1076.58 695.86 1102.19 650.63 1123.75 650.62 1109.43 722.78 1092.07 722.79 1102.11 672.88 1101.91 672.88 1076.39 718.01 1062.72 718.02 1057.4 670.63 1057.2 670.63 1046.96 722.83 1032.48 722.83 1046.81 650.67"/>
  <path class="st0" d="M1164.31,650.59h19.16s13.92,72.13,13.92,72.13h-18.36s-3.51-18.05-3.51-18.05h-26.65s-9.67,18.09-9.67,18.09h-13.67s38.77-72.17,38.77-72.17ZM1173.32,693.3l-4.71-25.15h-.2l-13.36,25.16h18.26Z"/>
  <polygon class="st0" points="1244.59 662.51 1218.04 662.53 1220.43 650.55 1292.59 650.5 1290.2 662.48 1263.85 662.5 1251.82 722.68 1232.56 722.69 1244.59 662.51"/>
  <path class="st0" d="M1294.35,696.91c-.01-20.36,17.63-48.22,49.87-48.24,21.06-.01,30.05,12.26,30.06,27.53.02,21.26-18.13,48.22-49.96,48.24-20.06.01-29.95-11.36-29.96-27.52M1314.81,695.69c0,9.58,4.8,16.76,13.89,16.75,17.07,0,25.13-20.57,25.13-34.94,0-9.58-3.81-16.87-14.39-16.86-17.06.01-24.63,20.68-24.63,35.05"/>
  <path class="st0" d="M1489.11,688.88l-6.37,32.15c-9.18,2-18.56,3.3-29.24,3.31-20.06.01-29.95-11.36-29.96-27.53-.01-20.36,17.63-48.22,49.87-48.24,7.68,0,15.27,1.09,22.56,2.99l-2.68,13.87c-6.79-2.89-14.08-4.89-21.46-4.88-17.16.01-27.83,18.49-27.82,33.95,0,10.68,6.9,17.86,17.48,17.85,1.7,0,3.49-.2,4.99-.3l4.67-23.16h17.96Z"/>
  <path class="st0" d="M1517.16,650.35l32.24-.03c14.27,0,18.87,7.47,18.87,14.15,0,11.18-8.67,20.57-19.04,25.07l14.1,32.93h-20.16s-9.9-28.82-9.9-28.82h-6.59s-5.77,28.85-5.77,28.85h-18.06s14.32-72.14,14.32-72.14ZM1528.66,682.86h3.89c9.68,0,16.46-8.29,16.46-15.08,0-5.19-4.89-5.48-8.99-5.48-2.4,0-4.99.2-7.28.41l-4.08,20.15Z"/>
  <path class="st0" d="M1579.99,696.71c-.01-20.36,17.63-48.22,49.87-48.24,21.06-.01,30.05,12.26,30.06,27.53.02,21.26-18.13,48.22-49.96,48.24-20.06.01-29.95-11.36-29.96-27.52M1600.45,695.49c0,9.58,4.8,16.77,13.89,16.76,17.07-.01,25.13-20.58,25.13-34.95,0-9.58-3.81-16.86-14.39-16.86-17.06,0-24.63,20.68-24.63,35.05"/>
  <path class="st0" d="M1671.15,708.22c6.09,1.99,12.38,3.98,18.87,3.98,5.99,0,12.07-1.91,12.07-8.99,0-10.98-24.36-14.86-24.37-31.23,0-9.37,7.87-23.55,29.32-23.57,7.09,0,14.27,1.3,21.06,3.28l-2.48,12.68c-5.59-1.89-12.38-3.98-18.27-3.98-4.39,0-10.38,1.41-10.37,7,0,9.68,25.56,15.25,25.57,32.51,0,7.89-5.37,24.25-34.32,24.28-6.99,0-15.37-1.38-19.76-2.08l2.68-13.87Z"/>
  <path class="st0" d="M1739.94,708.17c6.09,1.99,12.38,3.98,18.87,3.98,5.99,0,12.07-1.91,12.07-8.99,0-10.98-24.36-14.85-24.37-31.22,0-9.38,7.87-23.56,29.32-23.57,7.09,0,14.27,1.29,21.06,3.28l-2.48,12.68c-5.59-1.89-12.38-3.98-18.27-3.98-4.39,0-10.38,1.41-10.37,7,0,9.68,25.56,15.25,25.57,32.51,0,7.89-5.37,24.26-34.32,24.28-6.99,0-15.37-1.38-19.76-2.08l2.68-13.87Z"/>
  <path class="st0" d="M1807.92,696.55c-.01-20.36,17.63-48.21,49.87-48.24,21.06-.01,30.05,12.26,30.06,27.53.02,21.26-18.13,48.22-49.96,48.24-20.06.01-29.95-11.36-29.96-27.52M1828.38,695.34c0,9.58,4.8,16.77,13.89,16.76,17.07-.01,25.13-20.58,25.13-34.95,0-9.58-3.81-16.86-14.39-16.86-17.06.01-24.63,20.68-24.63,35.05"/>
  <path class="st0" d="M1315.27,397.38c19.76-15.08,29.64-27.17,29.64-36.27,0-5.85-2.6-10.82-7.79-14.92-5.2-4.09-11.37-6.14-18.51-6.14-20.26,0-42.83,13.23-67.7,39.68-24.87,26.46-49.58,63.54-74.13,111.25l11.03-56.74c6.45-30.42,9.67-69.68,9.67-76.83,0-11.57-4.55-17.36-13.64-17.36-8.58,0-19.7,2.34-33.35,7.02,4.29,5.07,6.43,11.38,6.43,18.92,0,13.91-2.99,55.77-8.97,84.63l-9.75,48.55c-4.68,23.79-7.02,38.68-7.02,44.65,0,11.7,6.66,17.55,19.99,17.55,5.35,0,12.47-2.08,21.35-6.24l-.19-3.32c0-9.88,5.84-26.42,17.52-49.63,11.68-23.21,25.44-45.73,41.29-67.57,25.57-35.1,46.6-52.65,63.09-52.65,9.09,0,16.1,5.14,21.03,15.4"/>
  <path class="st0" d="M2046.85,371.23c-4.29,0-14.43,1.85-30.31,5.51l-.24-.11c-.03.06-.06.12-.08.18-.4.09-.75.17-1.16.27.24.27.41.58.64.86-8.75,19.08-26.2,58.3-57.22,90.3-1.4,1.44-2.65,2.81-3.86,4.14.12-.34.2-.7.32-1.04-13.26,11.54-60.37,52.02-76.97,59.21-10.76,7.6-22.55,11.52-35.41,11.53-16.25-.02-29.54-5.97-39.86-17.86-10.33-11.88-15.5-27.05-15.52-45.51.02-25.48,8.58-48.16,25.66-68.04,17.08-19.88,41.41-35.91,63.51-35.92,4.41.02,9.94.73,16.57,2.14,14.84,4.93,21.33,10.23,25.11,21.68,3.36,10.01,5.05,20.35,5.07,31.01-.02,30.68-7.96,57.1-23.81,79.25-3.79,5.29-7.76,9.91-11.9,13.94,17.03-13.76,51.06-42.63,72.51-69.96,1.89-9.42,2.97-19.15,2.97-29.28,0-2.47-.19-5.27-.59-8.39-4.45-21.3-13.84-35.88-13.84-35.88,0,0-36.13-60.59-111.55-26.94,0,0-42.9,22.69-58.4,42.55-8.19,8.57-14.77,17.75-19.8,27.51-4.32,4.15-8.38,7.86-12.12,11-12.61,10.6-31.33,23.3-56.16,38.12l-17.35-31.59-22.23-40.95c22.49-13.39,33.73-27.37,33.73-41.93,0-10.27-8.84-18.78-26.52-25.55-13.05,6.85-23.11,14.71-30.23,23.54l-.33-.15c-.26.56-.6,1.19-1.01,1.88-1.19,1.59-2.32,3.19-3.33,4.84-17.92,23.92-79.82,84.41-104.66,106.63v.03s-.5.43-1.36,1.18c-.33.3-.74.67-1.06.95,0,0,0-.02,0-.03-10.87,9.49-56.17,48.63-75.34,58.87-11.29,8.55-23.75,12.85-37.4,12.86-16.25-.02-29.54-5.97-39.86-17.86-10.33-11.88-15.5-27.05-15.52-45.51.02-25.48,8.58-48.16,25.66-68.04,17.08-19.88,41.41-35.91,63.51-35.92,4.41.02,9.94.73,16.57,2.14,14.84,4.93,21.33,10.23,25.11,21.68,3.36,10.01,5.05,20.35,5.07,31.01-.02,30.68-7.96,57.1-23.81,79.25-2.99,4.18-6.12,7.82-9.32,11.21,18.15-14.85,50.11-42.52,70.18-68.55,1.73-9.01,2.72-18.3,2.72-27.96,0-2.47-.19-5.27-.59-8.39-4.45-21.3-13.84-35.88-13.84-35.88,0,0-36.13-60.59-111.55-26.94,0,0-42.9,22.69-58.4,42.55-21.26,22.23-31.88,48.49-31.88,78.78,0,26.65,8.22,48.33,24.67,65.04,16.44,16.7,37.73,25.06,63.86,25.06,30.21,0,57.02-10.93,80.43-32.76,0,0,0,0,0,0,23.62-15.85,30.57-25.41,42.33-33.69,12.28-8.64,63.83-58.27,97.33-95.92,2.85,16.02,11.91,36.41,27.4,61.35l15.6,25.15c-29.77,14.3-50.99,26.65-63.67,37.05-12.68,10.41-19.01,20.67-19.01,30.81,0,9.49,4.61,17.62,13.84,24.37,9.23,6.76,20.41,10.14,33.54,10.14,22.36,0,41.86-7.38,58.5-22.13,16.64-14.75,24.96-32.08,24.96-51.97,0-8.97-2.21-18.39-6.63-28.27,17.01-9.54,32.79-19.96,47.36-31.24-.79,5.53-1.3,11.17-1.3,17,0,26.65,8.22,48.33,24.67,65.04,16.44,16.7,37.73,25.06,63.86,25.06s51.22-8.73,72.76-26.13c0,0,.01.02.02.03,28.6-21.62,33.54-26.22,47.6-40.05,21.96-19.57,50.28-64.46,65.59-94.3-.98,12.88-4.02,31.82-9.2,57.03l-16.99,85.55c-8.85,45.34-24.88,105.04-29.83,115.83-4.74,10.44-10.11,18.64-16.1,24.67,43.25-4.87,62.09-56.71,64.44-63.67,3.83-12.42,16.45-58.08,19.56-73.78l22.62-114.28c3.77-18.72,5.65-33.02,5.65-42.9,0-13.65-4.81-20.48-14.43-20.48M1661.17,557.58c-7.15,7.73-16.45,11.6-27.89,11.6-15.47,0-23.2-5.33-23.2-15.99,0-11.31,19.11-27.24,57.33-47.78,2.99,7.54,4.49,14.95,4.49,22.23,0,12.22-3.58,22.2-10.73,29.93"/>
  <path class="st0" d="M1118.05,363.55c-13.55-15.4-30.46-23.19-50.67-23.45l-.37-.15c-24.91-1.02-95.15,2.9-116.28,76.76-2.13,8.32-3.91,15.68-4.84,20.36l-6.45,32.59c9.65,17.03,30.01,44.53,30.01,44.53-17.01-16.37-32.96-35.17-32.96-35.17v-.1c-16.36-20.34-31.1-52.18-43.83-100.86-15.16-58.02,18.7-118.31,18.22-118.53-20.15,3.51-33.74,7.41-40.76,11.7-7.02,4.29-17.62,15.21-31.78,32.76-38.45,47.5-67.74,86-88.1,115.73l-.6.82c-9.85,12.63-35.28,48-42.16,59.02-3.74,6.33-39.8,62.52,12.41,90.22-2.3-5.3-8.79-22.69-1.94-40.8,5.69-15.03,19.86-38.35,38.6-67.69l45.63.83c21.84,0,43.48-1.17,64.93-3.51l21.82-2.37c10.6,22.93,24.08,44.55,41.17,61.68l-4.83,24.3c-8.85,45.34-24.88,105.04-29.83,115.83-4.73,10.44-10.11,18.64-16.1,24.67,43.25-4.87,62.09-56.71,64.44-63.67,3.83-12.42,16.45-58.08,19.56-73.78l.15-.78c12.46,8.01,28.09,12.02,46.88,12.02,34.84,0,64.93-13.26,90.29-39.78,25.35-26.52,38.02-58.04,38.02-94.58,0-23.4-6.89-42.93-20.67-58.6M864.21,436.38c-14.3,1.82-34.91,2.73-61.82,2.73l-31.22-.77.48-.78,1.37-2.53,22.41-38.32c10.85-16.43,24.06-34.24,39.79-53.52,7.09-8.63,12.95-15.78,17.64-21.55,3.12,24.94,10.48,68.98,26.75,112.17l-15.4,2.59ZM1076.22,508.34c-16.06,19.24-35.52,28.86-58.4,28.86-19.08,0-35.18-7.65-48.3-22.95l3.26-16.49h-.04l14.53-72.18c.85-3.78,1.73-7.58,2.62-11.36,7.89-30.14,40.1-45.71,62.4-45.47,14.56.15,25.26,8.69,34.36,21.03,9.1,12.36,13.65,28.47,13.65,48.36,0,27.56-8.03,50.96-24.08,70.2"/>
  <path class="st0" d="M2411.07,437.17c-15.57-3.54-31.13,13.5-47.25,29.73-18.05,18.17-31.32,25.31-42.12,32.56-1.57,1.06-6.55,3.85-6.55,3.85-8.64,4.96-16.24,7.56-22.7,7.56-13.26,0-19.88-14.23-19.88-42.71,0-22.36,1.56-42.14,4.65-59.39,0,0,1.19-6.85,2.5-13.79.08-.46.17-.86.25-1.32.77-4.05,1.57-7.98,2.18-10.45.06-.25.01-.51.03-.77,4.37-20.54,8.85-32.44,11.25-39.47,2.3-6.75,6.4-17.73,12.39-23.76-38.96,4.39-48.82,30.92-52.11,41.24l-4.14-2.08c-22.9-12.22-44.18-18.33-63.83-18.33-32.41,0-60.94,15.47-85.6,46.41-24.66,30.94-36.98,66.76-36.98,107.45,0,20.41,4.13,36.76,12.39,49.04,8.26,12.28,19.29,18.43,33.09,18.43,18.09,0,39.33-12.06,63.74-36.17,24.4-24.11,44.94-53.4,61.6-87.85-.78,16.51-1.17,29.64-1.17,39.39,0,46.8,14.04,70.2,42.12,70.2,22.23,0,48.81-14.33,79.75-43,12.9-11.95,25.73-25.99,38.04-41.41,3.61-4.52,7.17-9.15,10.69-13.89,2.76-3.72,5.46-7.55,8.14-11.38-.16-.04-.34-.07-.46-.1M2235.11,401.67c-52.59,81.64-88.2,122.46-106.81,122.46-17.19,0-25.78-13.13-25.78-39.39,0-32.76,7.16-61.07,21.48-84.93,14.32-23.85,31.31-35.78,50.97-35.78,18.09,0,40.81,8.91,68.15,26.71-4.69,6.24-7.36,9.88-8.01,10.92"/>
</svg>