<svg preserveAspectRatio="xMidYMid meet" width="231" height="76" overflow="visible" style="display: block;" viewBox="0 0 231 76" fill="none" xmlns="http://www.w3.org/2000/svg">
<g id="logo aprosoja branca 1">
<path id="Vector" d="M32.6269 10.1502C29.7445 11.4811 25.4617 15.2802 23.7629 18.8303C21.9597 22.5999 20.6299 32.2046 31.8099 34.8468C47.4281 38.5388 49.8033 46.4799 47.4001 53.9575C45.7185 59.1896 40.821 64.6726 31.8149 64.5308C30.1259 64.5037 29.89 66.3303 32.0959 66.2061C41.3873 65.68 48.5524 62.7388 53.616 53.8967C58.059 46.1379 55.443 31.9504 36.8834 24.5497C30.0486 21.8247 32.5513 15.9634 34.5172 11.921C35.9867 8.89876 34.0865 9.47636 32.6277 10.1502" fill="var(--fill-0, white)"/>
<path id="Vector_2" d="M15.8261 27.6733C13.9711 27.9672 9.75157 34.0708 11.4603 39.7066C12.4835 43.0802 16.4975 47.7449 27.1006 47.9746C31.7828 48.0759 36.0533 48.4728 37.7135 50.2765C41.4974 54.3873 38.9701 58.661 35.7295 60.5112C32.6343 62.2778 28.6983 62.3394 25.2448 61.5161C24.284 61.2872 24.0152 62.5801 25.0681 62.8461C32.6466 64.7588 40.7314 62.2423 43.3885 54.2758C45.4095 48.2161 42.2371 43.2229 35.524 41.246C27.2403 38.8056 21.3146 39.6796 17.9292 35.0115C14.9812 30.9472 17.0055 27.4867 15.8261 27.6733Z" fill="var(--fill-0, white)"/>
<path id="Vector_3" d="M37.1653 55.2393C36.8661 58.4085 32.2965 60.9655 27.8616 59.394C22.0131 57.3209 22.4208 49.9675 27.02 50.92C31.5576 51.859 37.4685 52.0228 37.1653 55.2402" fill="var(--fill-0, white)"/>
<path id="Vector_4" d="M186.517 31.9056C187.137 31.9056 188.108 31.4404 189.419 30.525C188.973 30.5309 189.476 29.0024 189.704 27.718C189.87 26.7807 188.871 26.8322 188.313 26.9293C187.588 27.1768 186.96 27.3178 186.44 27.3414L186.083 27.3152C185.691 28.294 185.495 29.3968 185.495 30.6204C185.495 31.4775 185.836 31.9056 186.518 31.9056" fill="var(--fill-0, white)"/>
<path id="Vector_5" d="M96.6075 59.5401L98.8258 59.5384L99.2794 63.7353H99.2975L101.613 59.5359L103.561 59.535L102.267 66.2348L100.697 66.2365L101.605 61.6022H101.587L99.2811 65.7924L98.0458 65.7932L97.565 61.3928H97.5469L96.6207 66.2391L95.3131 66.2399L96.6075 59.5401Z" fill="var(--fill-0, white)"/>
<path id="Vector_6" d="M107.226 59.5325L108.958 59.5308L110.216 66.2298H108.557L108.24 64.5536H105.831L104.958 66.2332L103.722 66.2348L107.225 59.5325H107.226ZM108.041 63.498L107.615 61.1631H107.597L106.389 63.4997L108.04 63.498H108.041Z" fill="var(--fill-0, white)"/>
<path id="Vector_7" d="M114.482 60.6395L112.083 60.6412L112.298 59.5283L118.819 59.524L118.603 60.6362L116.222 60.6379L115.134 66.2264L113.394 66.2272L114.482 60.6395Z" fill="var(--fill-0, white)"/>
<path id="Vector_8" d="M118.978 63.8332C118.977 61.9425 120.572 59.356 123.485 59.3535C125.387 59.3518 126.2 60.4918 126.201 61.9088C126.202 63.8831 124.563 66.386 121.685 66.3885C119.872 66.3902 118.979 65.3338 118.978 63.8332ZM120.827 63.7201C120.827 64.6101 121.261 65.2764 122.082 65.2756C123.624 65.2756 124.352 63.3654 124.352 62.0312C124.352 61.142 124.008 60.4648 123.052 60.4656C121.51 60.4673 120.826 62.3859 120.827 63.7201Z" fill="var(--fill-0, white)"/>
<path id="Vector_9" d="M136.579 63.0876L136.003 66.0727C135.174 66.2585 134.326 66.3792 133.361 66.3801C131.548 66.3818 130.655 65.3254 130.654 63.8248C130.652 61.9341 132.247 59.3476 135.16 59.345C135.855 59.345 136.54 59.4464 137.198 59.6228L136.956 60.9106C136.343 60.6421 135.684 60.4572 135.016 60.4572C133.465 60.4588 132.501 62.1739 132.502 63.6095C132.502 64.6008 133.126 65.268 134.082 65.2671C134.235 65.2671 134.397 65.2485 134.532 65.2384L134.955 63.0876L136.578 63.0859L136.579 63.0876Z" fill="var(--fill-0, white)"/>
<path id="Vector_10" d="M139.113 59.5097L142.027 59.5072C143.316 59.5072 143.732 60.2004 143.732 60.8211C143.732 61.8589 142.949 62.7312 142.011 63.1484L143.285 66.2053L141.463 66.207L140.568 63.5292H139.973L139.452 66.2087L137.82 66.2104L139.113 59.5105V59.5097ZM140.153 62.5294H140.505C141.379 62.5294 141.992 61.7593 141.992 61.1293C141.992 60.648 141.55 60.621 141.18 60.621C140.964 60.621 140.729 60.6396 140.522 60.659L140.154 62.5303L140.153 62.5294Z" fill="var(--fill-0, white)"/>
<path id="Vector_11" d="M144.792 63.8147C144.79 61.924 146.385 59.3374 149.299 59.3349C151.202 59.3332 152.014 60.4732 152.015 61.8902C152.017 63.8645 150.376 66.3674 147.5 66.37C145.687 66.3716 144.793 65.3152 144.792 63.8147ZM146.641 63.7015C146.641 64.5916 147.075 65.2587 147.896 65.2578C149.439 65.2561 150.167 63.3468 150.167 62.0126C150.167 61.1234 149.822 60.447 148.867 60.4479C147.324 60.4479 146.64 62.3681 146.641 63.7024" fill="var(--fill-0, white)"/>
<path id="Vector_12" d="M153.03 64.8837C153.58 65.0687 154.149 65.2536 154.735 65.2528C155.276 65.2528 155.826 65.0754 155.825 64.4184C155.825 63.3992 153.624 63.0386 153.623 61.5186C153.623 60.648 154.334 59.3315 156.273 59.3298C156.914 59.3298 157.563 59.4497 158.176 59.6347L157.952 60.8118C157.447 60.6362 156.833 60.442 156.301 60.442C155.904 60.442 155.364 60.5728 155.364 61.0922C155.364 61.9907 157.673 62.5083 157.675 64.1111C157.675 64.844 157.189 66.3632 154.574 66.3657C153.942 66.3657 153.185 66.2374 152.788 66.1724L153.03 64.8837Z" fill="var(--fill-0, white)"/>
<path id="Vector_13" d="M159.247 64.8787C159.797 65.0636 160.365 65.2485 160.951 65.2477C161.493 65.2477 162.043 65.0704 162.042 64.4134C162.042 63.3941 159.84 63.0344 159.839 61.5144C159.839 60.6438 160.55 59.3264 162.489 59.3256C163.129 59.3256 163.779 59.4455 164.392 59.6296L164.167 60.8068C163.663 60.6311 163.049 60.4369 162.517 60.4377C162.12 60.4377 161.579 60.5686 161.579 61.088C161.579 61.9864 163.889 62.5041 163.89 64.1068C163.89 64.839 163.405 66.3598 160.79 66.3607C160.158 66.3607 159.401 66.2323 159.004 66.1681L159.246 64.8795L159.247 64.8787Z" fill="var(--fill-0, white)"/>
<path id="Vector_14" d="M165.39 63.7995C165.389 61.9096 166.984 59.3231 169.897 59.3205C171.799 59.3188 172.612 60.4588 172.613 61.8758C172.615 63.8501 170.974 66.3531 168.098 66.3556C166.285 66.3573 165.391 65.3009 165.39 63.7995ZM167.24 63.6872C167.24 64.5764 167.674 65.2435 168.495 65.2435C170.037 65.2418 170.765 63.3325 170.765 61.9983C170.765 61.1082 170.421 60.4327 169.465 60.4335C167.923 60.4352 167.239 62.3538 167.24 63.688" fill="var(--fill-0, white)"/>
<path id="Vector_15" d="M120.869 36.0215C122.654 34.6214 123.547 33.4991 123.547 32.6538C123.547 32.1108 123.312 31.6489 122.843 31.2689C122.373 30.8889 121.815 30.6989 121.17 30.6989C119.339 30.6989 117.3 31.9276 115.052 34.3832C112.804 36.8397 110.571 40.2834 108.353 44.7133L109.35 39.444C109.933 36.6193 110.224 32.9739 110.224 32.3101C110.224 31.236 109.813 30.6981 108.99 30.6981C108.214 30.6981 107.21 30.9151 105.976 31.35C106.364 31.8212 106.558 32.4064 106.558 33.1064C106.558 34.3984 106.288 38.2846 105.747 40.9648L104.866 45.4733C104.442 47.6824 104.231 49.0639 104.231 49.6196C104.231 50.7064 104.834 51.2493 106.038 51.2493C106.522 51.2493 107.165 51.056 107.968 50.67L107.95 50.3618C107.95 49.4448 108.478 47.9087 109.534 45.7537C110.59 43.5987 111.834 41.5078 113.265 39.4795C115.576 36.2208 117.477 34.5901 118.967 34.5901C119.788 34.5901 120.421 35.0672 120.868 36.0206" fill="var(--fill-0, white)"/>
<path id="Vector_16" d="M186.983 33.5937C186.595 33.5937 185.679 33.7651 184.243 34.1054L184.222 34.0953L184.215 34.1122C184.178 34.1206 184.146 34.1282 184.11 34.1367C184.132 34.1612 184.147 34.1907 184.169 34.216C183.378 35.9885 181.801 39.6289 178.997 42.6014C178.871 42.7356 178.757 42.8623 178.649 42.9856C178.66 42.9535 178.667 42.9206 178.678 42.8885C177.479 43.9601 173.222 47.7187 171.722 48.3867C170.749 49.0926 169.685 49.4566 168.522 49.4566C167.053 49.4549 165.852 48.9018 164.919 47.7981C163.986 46.6944 163.519 45.2859 163.517 43.5725C163.518 41.2064 164.292 39.1003 165.835 37.2544C167.379 35.4084 169.577 33.9205 171.574 33.9188C171.973 33.9205 172.473 33.9872 173.072 34.1181C174.413 34.5758 174.999 35.0681 175.341 36.1304C175.644 37.0601 175.797 38.0203 175.799 39.01C175.798 41.8591 175.08 44.3114 173.648 46.3684C173.306 46.8599 172.947 47.2889 172.573 47.663C174.111 46.3862 177.187 43.7042 179.126 41.1667C179.297 40.2918 179.394 39.3891 179.394 38.4484C179.394 38.2196 179.377 37.9595 179.341 37.6698C178.938 35.6921 178.089 34.3385 178.089 34.3385C178.089 34.3385 174.824 28.7128 168.009 31.8364C168.009 31.8364 164.133 33.9433 162.732 35.7867C161.991 36.5822 161.397 37.4351 160.942 38.342C160.551 38.7271 160.184 39.0716 159.847 39.3629C158.708 40.3467 157.015 41.5264 154.772 42.9028L153.204 39.9692L151.195 36.1676C153.227 34.9245 154.243 33.6266 154.243 32.2747C154.243 31.3213 153.444 30.5309 151.847 29.9026C150.667 30.5385 149.758 31.2681 149.115 32.0889L149.084 32.0754C149.061 32.1269 149.03 32.186 148.993 32.2502C148.885 32.3971 148.784 32.5466 148.692 32.6994C147.073 34.9203 141.48 40.5376 139.234 42.5997V42.6031C139.234 42.6031 139.188 42.6436 139.112 42.7128C139.081 42.7407 139.044 42.7753 139.016 42.8007V42.7981C138.034 43.6789 133.94 47.3134 132.208 48.2642C131.188 49.0588 130.061 49.4574 128.828 49.4591C127.36 49.4574 126.159 48.9043 125.226 47.8006C124.292 46.6969 123.826 45.2884 123.823 43.575C123.825 41.2089 124.598 39.1028 126.142 37.2569C127.686 35.4109 129.884 33.923 131.881 33.9213C132.279 33.923 132.779 33.9897 133.378 34.1206C134.72 34.5783 135.306 35.0706 135.647 36.1329C135.951 37.0627 136.104 38.0228 136.106 39.0125C136.104 41.8616 135.387 44.3139 133.954 46.371C133.685 46.7586 133.402 47.0972 133.113 47.4122C134.753 46.0332 137.641 43.4644 139.455 41.0476C139.611 40.2108 139.702 39.3486 139.702 38.4509C139.702 38.2221 139.684 37.962 139.648 37.6724C139.246 35.6947 138.397 34.341 138.397 34.341C138.397 34.341 135.132 28.7153 128.317 31.8389C128.317 31.8389 124.44 33.9458 123.04 35.7892C121.119 37.8531 120.158 40.2918 120.158 43.1047C120.158 45.5797 120.901 47.592 122.387 49.1433C123.873 50.6945 125.797 51.4706 128.159 51.4706C130.889 51.4706 133.312 50.4547 135.427 48.4289C137.562 46.9579 138.19 46.0695 139.252 45.3011C140.362 44.4988 145.021 39.8907 148.048 36.3947C148.305 37.8818 149.124 39.7759 150.524 42.0913L151.934 44.4271C149.243 45.7554 147.326 46.9021 146.18 47.8673C145.034 48.8334 144.461 49.7868 144.461 50.7283C144.461 51.6091 144.878 52.364 145.713 52.9914C146.547 53.6188 147.557 53.933 148.744 53.933C150.764 53.933 152.527 53.2473 154.03 51.8776C155.534 50.5079 156.286 48.8992 156.286 47.0516C156.286 46.219 156.087 45.3441 155.687 44.4262C157.224 43.5404 158.65 42.5735 159.968 41.5256C159.896 42.0398 159.849 42.5625 159.849 43.1047C159.849 45.5797 160.592 47.592 162.079 49.1433C163.565 50.6945 165.489 51.4706 167.85 51.4706C170.212 51.4706 172.478 50.6591 174.426 49.0445L174.428 49.047C177.012 47.0389 177.459 46.6125 178.729 45.3281C180.714 43.5108 183.274 39.3427 184.657 36.572C184.569 37.7678 184.294 39.5268 183.826 41.8676L182.29 49.8112C181.49 54.0216 180.041 59.5646 179.594 60.5661C179.166 61.5355 178.681 62.2972 178.139 62.8562C182.048 62.4036 183.751 57.5903 183.962 56.9434C184.309 55.7908 185.449 51.5508 185.73 50.0924L187.775 39.4812C188.115 37.7433 188.285 36.415 188.285 35.4971C188.285 34.2296 187.851 33.5962 186.981 33.5962M152.129 50.8964C151.483 51.6141 150.643 51.9739 149.609 51.9739C148.211 51.9739 147.512 51.4782 147.512 50.4893C147.512 49.4388 149.239 47.9602 152.693 46.0535C152.964 46.7535 153.099 47.4417 153.099 48.1173C153.099 49.2522 152.775 50.1786 152.129 50.8964" fill="var(--fill-0, white)"/>
<path id="Vector_17" d="M103.045 32.8801C101.821 31.4496 100.293 30.726 98.4666 30.7023L98.4329 30.6888C96.1818 30.5934 89.8344 30.9582 87.9244 37.8168C87.7321 38.5894 87.571 39.2726 87.4871 39.7066L86.9044 42.7323C87.7765 44.3139 89.6166 46.8667 89.6166 46.8667C88.0789 45.3467 86.6373 43.6012 86.6373 43.6012V43.5919C85.1588 41.7037 83.8265 38.7473 82.6767 34.227C81.3066 28.8395 84.3665 23.2416 84.3229 23.2205C82.5025 23.5465 81.2746 23.9088 80.6401 24.3065C80.0056 24.7051 79.0481 25.7184 77.7676 27.3482C74.2927 31.7579 71.6455 35.3332 69.8061 38.0937L69.7519 38.1697C68.8618 39.3418 66.5638 42.6267 65.9417 43.6502C65.6039 44.2379 62.3451 49.4549 67.0635 52.0279C66.8556 51.5356 66.2696 49.921 66.8885 48.2397C67.4021 46.8439 68.6834 44.6796 70.3765 41.9545L74.5007 42.0322C76.4748 42.0322 78.4309 41.9241 80.3689 41.7063L82.3414 41.4859C83.2997 43.6147 84.5169 45.6228 86.062 47.2137L85.6256 49.4701C84.8259 53.6805 83.3769 59.2234 82.9298 60.2249C82.5016 61.1944 82.0167 61.956 81.4751 62.5159C85.384 62.0633 87.0869 57.25 87.2989 56.6031C87.6458 55.4504 88.7849 51.2105 89.0668 49.7521L89.0808 49.6795C90.2067 50.4235 91.6187 50.7959 93.3167 50.7959C96.4653 50.7959 99.1849 49.5647 101.476 47.1023C103.768 44.6399 104.913 41.713 104.913 38.3209C104.913 36.1481 104.29 34.3343 103.045 32.8801ZM80.1059 39.6424C78.8131 39.8113 76.9515 39.8958 74.5196 39.8958L71.6981 39.824L71.7408 39.7514L71.8641 39.5158L73.89 35.9573C74.8705 34.4322 76.0647 32.778 77.4857 30.9877C78.1268 30.1864 78.6553 29.5218 79.0794 28.9864C79.3613 31.3027 80.0262 35.3907 81.4973 39.4018L80.1059 39.6416V39.6424ZM99.2655 46.3237C97.814 48.1105 96.0552 49.0031 93.9874 49.0031C92.2631 49.0031 90.8075 48.2929 89.6224 46.8726L89.9174 45.3408H89.9142L91.2275 38.6384C91.3048 38.2871 91.3837 37.935 91.4642 37.5837C92.1776 34.7852 95.0879 33.3395 97.1031 33.3615C98.4189 33.3758 99.3855 34.1679 100.208 35.3147C101.031 36.4614 101.442 37.9578 101.442 39.8054C101.442 42.3649 100.716 44.5377 99.2655 46.3237Z" fill="var(--fill-0, white)"/>
<path id="Vector_18" d="M219.897 39.7159C218.49 39.3874 217.084 40.9699 215.627 42.4764C213.995 44.1636 212.796 44.8265 211.821 45.4995C211.679 45.5983 211.229 45.8567 211.229 45.8567C210.448 46.3169 209.761 46.5584 209.178 46.5584C207.979 46.5584 207.38 45.2369 207.38 42.5929C207.38 40.5173 207.521 38.6806 207.8 37.0779C207.8 37.0779 207.907 36.442 208.026 35.7977C208.033 35.7546 208.042 35.7175 208.048 35.6752C208.118 35.2995 208.19 34.9347 208.245 34.705C208.25 34.6822 208.246 34.6577 208.247 34.634C208.642 32.7264 209.047 31.6219 209.264 30.9692C209.472 30.3426 209.842 29.3225 210.384 28.7635C206.863 29.1713 205.972 31.6337 205.675 32.593L205.3 32.3996C203.23 31.2656 201.307 30.6972 199.531 30.6972C196.603 30.6972 194.025 32.1345 191.796 35.0064C189.568 37.8792 188.453 41.2047 188.453 44.9827C188.453 46.8776 188.826 48.396 189.573 49.5368C190.32 50.6768 191.316 51.2476 192.564 51.2476C194.199 51.2476 196.119 50.1279 198.325 47.8884C200.53 45.649 202.386 42.9307 203.891 39.732C203.821 41.2646 203.785 42.484 203.785 43.3892C203.785 47.7348 205.054 49.9075 207.592 49.9075C209.601 49.9075 212.003 48.5767 214.799 45.915C215.965 44.8054 217.123 43.5016 218.237 42.0702C218.563 41.6505 218.886 41.2207 219.203 40.7808C219.452 40.4354 219.696 40.0799 219.938 39.7235L219.897 39.7142V39.7159ZM203.996 36.42C199.243 44.0006 196.025 47.7905 194.343 47.7905C192.791 47.7905 192.013 46.572 192.013 44.1332C192.013 41.0915 192.66 38.4628 193.955 36.2478C195.249 34.0328 196.784 32.9257 198.561 32.9257C200.195 32.9257 202.248 33.7524 204.719 35.4059C204.295 35.9852 204.054 36.3238 203.995 36.42" fill="var(--fill-0, white)"/>
</g>
</svg>
